<svg width="512" height="512" viewBox="0 0 512 512" fill="none"
    xmlns="http://www.w3.org/2000/svg">
    <circle cx="255.5" cy="256.5" r="231.5" fill="white" stroke="white" stroke-width="8"/>
    <path d="M388.8 194.675L385.2 198.275L378 194.675C381.6 187.475 379.519 187.561 372.6 180.275C365.193 176.752 357.264 177.306 350.55 180.275C377.95 145.134 372.217 122.891 352.8 85.325C378.166 108.496 409.5 130.325 407.25 169.925C405.176 180.859 403.2 187.925 388.8 194.675Z" fill="#22A4D8" stroke="white" stroke-width="0.9"/>
    <path d="M303.3 60.575C354.15 71.825 384.3 128.975 346.95 180.275L342 176.675C340.439 156.185 327.926 160.482 306.9 170.375C324.322 131.215 329.987 103.844 303.3 60.575Z" fill="#EB443B" stroke="white" stroke-width="0.9"/>
    <path d="M289.8 56.075C322.189 86.6417 317.783 117.946 303.3 173.075H297C295.283 150.708 278.786 146.281 258.3 169.475V49.325C272.676 49.9758 279.462 51.5598 289.8 56.075Z" fill="#1DADED" stroke="white" stroke-width="0.9"/>
    <path d="M252 49.775V169.475C235.018 148.102 224.951 143.139 211.5 172.625H206.1C183.593 78.6057 203.822 48.4308 252 49.775Z" fill="#F39019" stroke="white" stroke-width="0.9"/>
    <path d="M207.9 58.775C188.033 91.7464 178.65 116.375 202.05 169.475C176.636 160.525 170.24 161.153 167.85 177.125L162 179.825C128.581 118.395 153.398 73.6574 207.9 58.775Z" fill="#44C9B6" stroke="white" stroke-width="0.9"/>
    <path d="M157.5 83.525C131.312 126.456 136.35 147.875 157.5 178.925C139.489 173.724 129.521 173.144 130.95 195.125L124.65 198.275C109.308 193.977 106.526 189.721 102.15 178.925C97.8451 136.291 118.969 116.225 157.5 83.525Z" fill="#EB443B" stroke="white" stroke-width="0.9"/>
    <path d="M124.65 197.825L130.5 194.675L225 281.975L225 290.975L124.65 197.825Z" fill="#3E3E3E"/>
    <path d="M162 179.375L167.4 176.675L230.597 285.282L224.704 288.684L162 179.375Z" fill="#3E3E3E"/>
    <path d="M206.55 172.175L211.5 172.175L239.4 284.961L232.637 284.961L206.55 172.175Z" fill="#3E3E3E"/>
    <path d="M251.55 168.575H258.804V284.719H252L251.55 168.575Z" fill="#3E3E3E"/>
    <path d="M297.45 172.625L302.85 172.625L278.437 285.232L271.8 285.125L297.45 172.625Z" fill="#3E3E3E"/>
    <path d="M342.45 176.225L346.95 179.375L285.296 288.206L279.437 284.746L342.45 176.225Z" fill="#3E3E3E"/>
    <path d="M379.35 193.775L385.2 197.825L283.5 290.975L279.9 286.925L379.35 193.775Z" fill="#3E3E3E"/>
    <rect x="225" y="283.775" width="58.5" height="7.2" fill="#3E3E3E"/>
    <path d="M245.25 313.025L243 292.775H244.8L247.05 313.025H245.25Z" fill="#959595"/>
    <path d="M261 313.025L263.25 292.775H261.45L259.2 313.025H261Z" fill="#959595"/>
    <path d="M222.3 271.175H288L286.551 277.475H223.749L222.3 271.175Z" fill="#3E3E3E"/>
    <path d="M280.35 397.625C273.082 411.727 266.182 419.696 255.6 432.275H352.8C399.886 403.089 416.671 379.714 440.1 333.275C439.319 331.881 439.2 330.575 435.6 329.675C425.25 328.325 420.842 328.42 415.8 324.725C403.043 314.726 396.45 299.075 388.8 299.075C380.774 299.075 374.001 331.046 345.15 355.775C342 358.475 340.65 361.625 335.7 361.625C330.75 360.275 330.75 354.875 327.15 355.325C321.75 355.325 306 388.625 300.15 391.775C296.55 391.775 296.55 387.725 293.4 388.625C291.15 389.075 288.9 395.375 285.75 397.625H280.35Z" fill="#E2E2E2"/>
    <path d="M284.4 408.425L260.1 432.275H352.8C389.235 409.047 408.775 393.162 437.85 338.675L414.9 336.875L390.6 310.775L367.65 357.125L380.7 349.925L352.35 384.575L346.95 368.375L334.8 384.575L328.5 370.175L315.9 387.275L301.5 402.125L295.65 396.725L284.4 416.525V408.425Z" fill="#103B42"/>
    <path d="M435.6 339.575L434.25 340.925L414 339.575L415.8 337.775L412.65 335.975L418.5 329.225L414 327.875L420.3 321.125L416.25 320.675C418.41 320.675 421.95 311.975 423.45 307.625C423.45 313.025 430.35 318.875 433.8 321.125H427.5C427.5 321.845 433.5 328.025 436.5 331.025L428.85 331.475L435.6 339.575Z" fill="#103B42"/>
    <path d="M223.65 397.625C230.918 411.727 237.818 419.696 248.4 432.275H151.2C104.114 403.089 87.3293 379.714 63.9 333.275C64.681 331.881 64.8 330.575 68.4 329.675C78.75 328.325 83.1576 328.42 88.2 324.725C100.957 314.726 107.55 299.075 115.2 299.075C123.226 299.075 129.999 331.046 158.85 355.775C162 358.475 163.35 361.625 168.3 361.625C173.25 360.275 173.25 354.875 176.85 355.325C182.25 355.325 198 388.625 203.85 391.775C207.45 391.775 207.45 387.725 210.6 388.625C212.85 389.075 215.1 395.375 218.25 397.625H223.65Z" fill="#E2E2E2"/>
    <path d="M219.6 408.425L243.9 432.275H151.2C114.765 409.047 95.2246 393.162 66.15 338.675L89.1 336.875L113.4 310.775L136.35 357.125L123.3 349.925L151.65 384.575L157.05 368.375L169.2 384.575L175.5 370.175L188.1 387.275L202.5 402.125L208.35 396.725L219.6 416.525V408.425Z" fill="#103B42"/>
    <path d="M68.4 339.575L69.75 340.925L90 339.575L88.2 337.775L91.35 335.975L85.5 329.225L90 327.875L83.7 321.125L87.75 320.675C85.59 320.675 82.05 311.975 80.55 307.625C80.55 313.025 73.65 318.875 70.2 321.125H76.5C76.5 321.845 70.5 328.025 67.5 331.025L75.15 331.475L68.4 339.575Z" fill="#103B42"/>
    <path d="M151.2 432.275C227.7 467.973 274.5 470.948 352.8 432.275H151.2Z" fill="#103B42"/>
    <path d="M310.05 434.075H192.6L252.45 447.575L310.05 434.075Z" fill="#1DADED"/>
    <path d="M252 431.825L193.05 434.075L252 435.425L309.6 434.075L252 431.825Z" fill="white"/>
    <path fill-rule="evenodd" clip-rule="evenodd" d="M235.8 297.275V295.025L234.9 292.775L225 290.975H283.5L270.9 292.775L270 295.025V297.275C271.029 298.869 270.675 299.403 270.095 300.282C270.064 300.328 270.032 300.376 270 300.425C270.491 305.583 270.917 308.556 271.8 313.925C268.548 316.738 265.853 317.661 261.106 319.289L261 319.325C260.121 324.997 259.829 328.202 261.45 334.175C260.545 334.058 260.053 334.165 259.2 334.625C261.191 338.165 262.091 340.137 263.25 343.625L261 344.525L262.35 349.025C261.1 354.493 260.191 357.437 258.3 362.525C259.274 364.79 259.786 366.066 260.55 368.375C260.411 370.38 259.136 370.613 256.95 370.175C255.808 367.738 255.301 366.271 254.7 363.425L256.5 355.325L256.95 347.225H256.05L252.45 341.375L249.75 346.775H248.85L248.4 349.025C248.507 349.754 248.607 350.444 248.702 351.106L248.702 351.106C249.413 356.032 249.892 359.354 251.55 364.775L249.3 370.175C247.304 371.029 246.262 371.251 245.25 368.825C245.897 366.491 246.407 365.326 247.5 363.425C245.876 358.7 245.007 355.883 243.9 349.025C243.709 347.259 243.795 346.278 244.35 344.525C243.511 344.448 243.121 344.241 242.55 343.625C242.864 340.445 243.604 338.779 245.7 335.975C245.818 334.887 245.316 334.665 243.9 334.625C244.777 328.791 244.661 325.451 243 319.325C239.386 318.021 237.392 317.037 234 313.925C234.68 308.426 235.072 305.447 235.8 300.425C234.731 299.334 234.38 298.69 235.8 297.275ZM238.95 295.475L238.05 292.775H268.2L267.3 295.475C266.289 297.232 265.974 298.218 266.85 299.975C267.505 305.071 267.53 307.929 266.85 313.025H258.3L255.6 311.675H254.996C256.006 310.779 256.5 309.299 256.5 307.625C256.5 304.891 255.184 302.675 252.45 302.675C249.716 302.675 248.4 304.891 248.4 307.625C248.4 309.299 248.894 310.779 249.904 311.675H249.75L246.6 313.025L238.944 312.977C238.353 308.411 238.032 304.536 238.95 299.975C239.596 298.218 239.695 297.232 238.95 295.475Z" fill="#3E3E3E"/>
</svg>
