<svg width="769" height="769" viewBox="0 0 769 769" fill="none" xmlns="http://www.w3.org/2000/svg">
<circle cx="383.749" cy="385.251" r="347.702" fill="#366B81" stroke="#99CCE1" stroke-width="12.0156"/>
<path d="M657.194 384.5C657.194 535.665 534.873 658.194 384 658.194C233.127 658.194 110.806 535.665 110.806 384.5C110.806 233.335 233.127 110.806 384 110.806C534.873 110.806 657.194 233.335 657.194 384.5Z" fill="#99CCE1" stroke="#99CCE1" stroke-width="9.6125"/>
<path d="M472.097 581.017C461.181 602.197 415.894 614.167 400 633.06H580.914C651.635 589.225 676.845 554.116 712.034 484.367C710.861 482.272 710.683 480.312 705.276 478.96C689.73 476.932 683.11 477.074 675.537 471.525C656.377 456.507 646.474 433 634.984 433C622.93 433 612.756 481.019 569.424 518.161C564.693 522.216 562.665 526.947 555.231 526.947C547.796 524.92 547.796 516.809 542.389 517.485C534.278 517.485 510.623 567.5 501.836 572.231C496.429 572.231 496.429 566.148 491.698 567.5C488.319 568.176 484.939 577.638 480.208 581.017H472.097Z" fill="#E2E2E2"/>
<path d="M478.18 597.239L387 633.06H618.5C660 597.239 678.5 570 708.655 492.477L674.185 489.774L637.688 450.573L603.218 520.188L622.818 509.374L580.238 561.417L572.128 537.085L553.879 561.417L544.416 539.789L525.492 565.472L503.864 587.776L495.077 579.666L478.18 609.404V597.239Z" fill="#103B42"/>
<path d="M705.276 493.829L703.248 495.857L672.833 493.829L675.537 491.126L670.806 488.422L679.592 478.284L672.833 476.256L682.296 466.118L676.213 465.442C679.457 465.442 684.774 452.375 687.027 445.842C687.027 453.952 697.39 462.739 702.572 466.118H693.11C693.11 467.2 702.122 476.482 706.627 480.987L695.137 481.663L705.276 493.829Z" fill="#103B42"/>
<path d="M295.937 578.017C306.853 599.197 346.106 613.607 362 632.5L187.12 630.06C116.4 586.225 91.1897 551.116 56 481.367C57.173 479.272 57.3518 477.312 62.7588 475.96C78.304 473.932 84.924 474.074 92.4975 468.525C111.658 453.507 121.56 430 133.05 430C145.104 430 155.278 478.019 198.61 515.161C203.342 519.216 205.369 523.947 212.804 523.947C220.239 521.92 220.239 513.809 225.646 514.485C233.756 514.485 257.412 564.5 266.198 569.231C271.605 569.231 271.605 563.148 276.337 564.5C279.716 565.176 283.095 574.638 287.826 578.017H295.937Z" fill="#E2E2E2"/>
<path d="M289.854 594.239L371 633.5L145.216 630.06C105 592.5 66.5 524.5 59.3792 489.477L93.849 486.774L130.346 447.573L164.816 517.188L145.216 506.374L187.796 558.417L195.907 534.085L214.155 558.417L223.618 536.789L242.542 562.472L264.17 584.776L272.957 576.666L289.854 606.404V594.239Z" fill="#103B42"/>
<path d="M62.7585 490.829L64.7861 492.857L95.2007 490.829L92.4972 488.126L97.2283 485.422L88.4419 475.284L95.2007 473.256L85.7384 463.118L91.8213 462.442C88.5771 462.442 83.2602 449.375 81.0072 442.842C81.0072 450.952 70.6438 459.739 65.462 463.118H74.9243C74.9243 464.2 65.9126 473.482 61.4067 477.987L72.8967 478.663L62.7585 490.829Z" fill="#103B42"/>
<path d="M145.5 630C268.5 758.929 488.5 759 619 633L145.5 630Z" fill="#103B42"/>
<path d="M516.638 635.857H238.16L380.067 683L516.638 635.857Z" fill="#1DADED"/>
<path d="M380 628L240.228 635.857L380 640.571L516.571 635.857L380 628Z" fill="white"/>
<path d="M566.769 348.281L561.889 353.16L552.129 348.281C557.009 338.521 554.188 338.637 544.81 328.761C534.77 323.986 524.022 324.736 514.921 328.761C552.061 281.127 544.291 250.977 517.971 200.055C552.355 231.464 594.828 261.053 591.778 314.732C588.967 329.553 586.288 339.131 566.769 348.281Z" fill="#22A4D8" stroke="white" stroke-width="4.5125"/>
<path d="M450.873 166.506C519.801 181.756 560.669 259.223 510.041 328.761L503.331 323.881C501.215 296.106 484.253 301.931 455.753 315.342C479.368 262.26 487.047 225.158 450.873 166.506Z" fill="#EB443B" stroke="white" stroke-width="4.5125"/>
<path d="M432.573 160.407C476.477 201.84 470.504 244.273 450.873 319.002H442.333C440.005 288.683 417.644 282.682 389.875 314.122V151.257C409.362 152.139 418.561 154.286 432.573 160.407Z" fill="#1DADED" stroke="white" stroke-width="4.5125"/>
<path d="M381.335 151.867V314.122C358.316 285.15 344.669 278.423 326.437 318.392H319.117C288.609 190.947 316.029 150.045 381.335 151.867Z" fill="#F39019" stroke="white" stroke-width="4.5125"/>
<path d="M321.557 164.066C294.627 208.76 281.908 242.144 313.627 314.122C279.178 301.99 270.508 302.841 267.268 324.491L259.339 328.151C214.038 244.882 247.679 184.24 321.557 164.066Z" fill="#44C9B6" stroke="white" stroke-width="4.5125"/>
<path d="M253.239 197.615C217.741 255.809 224.57 284.843 253.239 326.931C228.825 319.881 215.313 319.095 217.25 348.891L208.711 353.16C187.914 347.335 184.143 341.566 178.212 326.931C172.376 269.14 201.01 241.94 253.239 197.615Z" fill="#EB443B" stroke="white" stroke-width="4.5125"/>
<path d="M208.71 352.551L216.64 348.281L344.736 466.617L344.736 478.817L208.71 352.551Z" fill="#3E3E3E"/>
<path d="M259.339 327.541L266.659 323.881L352.322 471.1L344.335 475.711L259.339 327.541Z" fill="#3E3E3E"/>
<path d="M319.727 317.782L326.437 317.782L364.255 470.665L355.088 470.665L319.727 317.782Z" fill="#3E3E3E"/>
<path d="M380.725 312.902H390.557V470.337H381.335L380.725 312.902Z" fill="#3E3E3E"/>
<path d="M442.943 318.392L450.263 318.392L417.17 471.031L408.174 470.887L442.943 318.392Z" fill="#3E3E3E"/>
<path d="M503.941 323.271L510.041 327.541L426.468 475.063L418.527 470.373L503.941 323.271Z" fill="#3E3E3E"/>
<path d="M553.959 347.061L561.889 352.551L424.033 478.817L419.154 473.327L553.959 347.061Z" fill="#3E3E3E"/>
<rect x="344.736" y="469.057" width="79.2975" height="9.75969" fill="#3E3E3E"/>
<path d="M372.185 508.706L369.135 481.256H371.575L374.625 508.706H372.185Z" fill="#959595"/>
<path d="M393.534 508.706L396.584 481.256H394.144L391.095 508.706H393.534Z" fill="#959595"/>
<path d="M341.076 451.977H430.133L428.169 460.517H343.041L341.076 451.977Z" fill="#3E3E3E"/>
<path fill-rule="evenodd" clip-rule="evenodd" d="M359.376 487.356V484.306L358.156 481.256L344.736 478.817H424.033L406.954 481.256L405.734 484.306V487.356C407.129 489.516 406.65 490.241 405.862 491.432L405.862 491.432C405.82 491.495 405.777 491.56 405.734 491.626C406.399 498.618 406.976 502.648 408.174 509.926C403.765 513.738 400.113 514.99 393.679 517.196L393.534 517.245C392.342 524.934 391.947 529.278 394.144 537.375C392.917 537.216 392.25 537.361 391.095 537.985C393.793 542.783 395.013 545.457 396.584 550.184L393.534 551.404L395.364 557.504C393.67 564.916 392.438 568.906 389.875 575.803C391.195 578.873 391.889 580.604 392.924 583.733C392.736 586.45 391.008 586.766 388.045 586.173C386.497 582.87 385.809 580.881 384.995 577.023L387.435 566.044L388.045 555.064H386.825L381.945 547.134L378.285 554.454H377.065L376.455 557.504C376.6 558.492 376.735 559.428 376.865 560.324L376.865 560.325C377.828 567.002 378.478 571.505 380.725 578.853L377.675 586.173C374.969 587.331 373.557 587.632 372.185 584.343C373.062 581.179 373.754 579.6 375.235 577.023C373.034 570.619 371.856 566.801 370.355 557.504C370.096 555.11 370.213 553.781 370.965 551.404C369.827 551.299 369.299 551.019 368.525 550.184C368.951 545.873 369.953 543.616 372.795 539.815C372.955 538.339 372.274 538.039 370.355 537.985C371.544 530.077 371.386 525.549 369.135 517.245C364.236 515.478 361.533 514.144 356.936 509.926C357.858 502.472 358.389 498.434 359.376 491.626C357.926 490.147 357.451 489.274 359.376 487.356ZM363.645 484.916L362.426 481.256H403.294L402.074 484.916C400.704 487.298 400.277 488.634 401.464 491.016C402.352 497.924 402.386 501.798 401.464 508.706H389.875L386.215 506.876H385.396C386.766 505.661 387.435 503.655 387.435 501.386C387.435 497.68 385.651 494.676 381.945 494.676C378.239 494.676 376.455 497.68 376.455 501.386C376.455 503.655 377.124 505.661 378.494 506.876H378.285L374.015 508.706L363.637 508.64C362.836 502.451 362.401 497.199 363.645 491.016C364.52 488.634 364.655 487.299 363.645 484.916Z" fill="#3E3E3E"/>
<path d="M202.837 157.898L176.352 119.622L191.453 109.173C194.356 107.164 197.213 106.007 200.023 105.702C202.825 105.385 205.439 105.833 207.864 107.048C210.293 108.242 212.387 110.11 214.146 112.651C215.904 115.193 216.908 117.815 217.156 120.517C217.405 123.22 216.864 125.833 215.533 128.357C214.215 130.872 212.086 133.147 209.145 135.181L199.52 141.841L195.033 135.356L203.349 129.601C204.907 128.524 206.005 127.368 206.643 126.134C207.286 124.879 207.524 123.599 207.359 122.295C207.197 120.969 206.681 119.677 205.81 118.419C204.931 117.148 203.908 116.216 202.742 115.622C201.58 115.008 200.307 114.792 198.923 114.976C197.531 115.147 196.049 115.776 194.479 116.862L189.022 120.639L210.929 152.298L202.837 157.898Z" fill="white"/>
<path d="M238.993 133.887L229.607 138.696L222.683 89.9439L233.97 84.161L269.474 118.269L260.089 123.078L233.338 96.4357L233.015 96.6015L238.993 133.887ZM230.063 117.905L252.232 106.546L255.735 113.383L233.566 124.741L230.063 117.905Z" fill="white"/>
<path d="M270.512 118.105L255.213 74.1458L272.556 68.1101C275.876 66.9547 278.916 66.5625 281.676 66.9335C284.446 67.2852 286.822 68.3273 288.805 70.0598C290.796 71.773 292.298 74.082 293.309 76.9869C294.325 79.9061 294.569 82.6366 294.042 85.1783C293.51 87.7058 292.243 89.9434 290.242 91.8913C288.255 93.8341 285.573 95.3932 282.196 96.5684L270.583 100.61L267.984 93.14L278.094 89.6217C279.868 89.0041 281.257 88.2479 282.261 87.353C283.265 86.4582 283.884 85.4246 284.118 84.2523C284.366 83.0751 284.239 81.7638 283.736 80.3185C283.228 78.8589 282.506 77.7304 281.571 76.9329C280.65 76.1304 279.506 75.6783 278.139 75.5765C276.781 75.4554 275.208 75.7061 273.419 76.3286L267.152 78.5098L279.806 114.871L270.512 118.105ZM287.289 89.8385L305.177 106.041L294.917 109.612L277.265 93.327L287.289 89.8385Z" fill="white"/>
<path d="M311.159 104.839L300.825 106.942L307.287 58.1269L319.714 55.5975L344.721 98.0073L334.387 100.111L315.8 67.2486L315.444 67.3211L311.159 104.839ZM306.864 87.0423L331.272 82.074L332.805 89.6015L308.396 94.5698L306.864 87.0423Z" fill="white"/>
<path d="M365.552 73.8439L366.167 81.5011L345.008 83.1993L344.393 75.5421L365.552 73.8439Z" fill="white"/>
<path d="M372.258 96.1244L374.002 49.6117L383.836 49.9804L383.067 70.4887L383.681 70.5117L401.188 50.631L412.975 51.0729L394.933 71.252L411.435 97.5934L399.671 97.1523L387.647 77.5516L382.588 83.2752L382.092 96.4932L372.258 96.1244Z" fill="white"/>
<path d="M418.091 98.8728L407.709 97.0206L431.703 54.021L444.188 56.2484L451.808 104.889L441.427 103.036L436.256 65.6376L435.898 65.5738L418.091 98.8728ZM420.655 80.746L445.177 85.1211L443.828 92.6835L419.306 88.3084L420.655 80.746Z" fill="white"/>
<path d="M451.023 104.971L465.372 60.6926L482.841 66.3535C486.185 67.4371 488.845 68.9601 490.821 70.9224C492.817 72.875 494.081 75.1404 494.616 77.7185C495.169 80.2869 494.972 83.0341 494.023 85.9601C493.071 88.9005 491.617 91.2246 489.662 92.9323C487.711 94.6257 485.351 95.6445 482.579 95.9887C479.822 96.3377 476.743 95.961 473.341 94.8587L461.645 91.0684L464.083 83.5444L474.266 86.8443C476.053 87.4235 477.617 87.6596 478.958 87.5525C480.299 87.4454 481.416 86.9953 482.31 86.202C483.219 85.4133 483.909 84.2911 484.381 82.8354C484.857 81.3652 484.963 80.0298 484.699 78.8294C484.45 77.6336 483.811 76.5824 482.783 75.6759C481.774 74.7596 480.368 74.0095 478.567 73.4257L472.253 71.3799L460.385 108.005L451.023 104.971ZM481.465 92.5698L485.94 116.286L475.606 112.937L471.368 89.2979L481.465 92.5698Z" fill="white"/>
<path d="M492.193 119.233L482.685 114.671L517.309 79.6585L528.742 85.145L523.072 134.051L513.564 129.489L518.588 92.0699L518.26 91.9125L492.193 119.233ZM499.514 102.453L521.971 113.23L518.648 120.156L496.19 109.379L499.514 102.453Z" fill="white"/>
<path d="M549.709 95.5292L559.667 102.467L552.307 135.454L552.754 135.766L581.149 117.434L591.107 124.372L564.498 162.562L556.666 157.105L573.985 132.248L573.668 132.028L546.596 149.812L541.263 146.096L548.634 114.447L548.317 114.226L530.933 139.176L523.101 133.719L549.709 95.5292Z" fill="white"/>
</svg>
