<svg width="58" height="58" viewBox="0 0 58 58" fill="none" xmlns="http://www.w3.org/2000/svg">
<path fill-rule="evenodd" clip-rule="evenodd" d="M37.94 52.8V34.212H44.18L45.1136 26.9689H37.9376V22.3441C37.9376 20.2465 38.5208 18.816 41.5304 18.816H45.3656V12.336C43.5083 12.1384 41.6415 12.0422 39.7736 12.048C34.244 12.048 30.4592 15.4248 30.4592 21.6241V26.9689H24.2V34.212H30.4568V52.8H7.64963C6.18563 52.8 5.00003 51.6145 5.00003 50.1505V7.44965C5.00003 5.98565 6.18563 4.80005 7.64963 4.80005H50.3504C51.8144 4.80005 53 5.98565 53 7.44965V50.1505C53 51.6145 51.8144 52.8 50.3504 52.8H37.94Z" fill="white"/>
</svg>
