<svg width="59" height="58" viewBox="0 0 59 58" fill="none" xmlns="http://www.w3.org/2000/svg">
<path d="M32.0672 4.80005C34.7672 4.80725 36.1376 4.82165 37.3208 4.85525L37.7864 4.87205C38.324 4.89125 38.8544 4.91525 39.4952 4.94405C42.0488 5.06405 43.7912 5.46725 45.32 6.06005C46.904 6.66965 48.2384 7.49525 49.5728 8.82725C50.7937 10.0266 51.738 11.478 52.34 13.08C52.9328 14.6088 53.336 16.3512 53.456 18.9072C53.4848 19.5456 53.5088 20.076 53.528 20.616L53.5424 21.0816C53.5784 22.2625 53.5928 23.6329 53.5976 26.3328L53.6 28.1233V31.2673C53.6058 33.0178 53.5874 34.7684 53.5448 36.5184L53.5304 36.9841C53.5112 37.524 53.4872 38.0545 53.4584 38.6928C53.3384 41.2488 52.9304 42.9888 52.34 44.5201C51.738 46.1221 50.7937 47.5735 49.5728 48.7729C48.3734 49.9937 46.9221 50.9381 45.32 51.5401C43.7912 52.1329 42.0488 52.5361 39.4952 52.6561L37.7864 52.7281L37.3208 52.7425C36.1376 52.7761 34.7672 52.7929 32.0672 52.7977L30.2768 52.8H27.1352C25.3838 52.8062 23.6325 52.7878 21.8816 52.7449L21.416 52.7305C20.8463 52.7089 20.2767 52.6841 19.7072 52.6561C17.1536 52.5361 15.4112 52.1329 13.88 51.5401C12.2788 50.9378 10.8283 49.9934 9.6296 48.7729C8.40787 47.5737 7.46266 46.1223 6.86 44.5201C6.2672 42.9912 5.864 41.2488 5.744 38.6928L5.672 36.9841L5.66 36.5184C5.61576 34.7684 5.59575 33.0178 5.6 31.2673V26.3328C5.59335 24.5823 5.61096 22.8317 5.6528 21.0816L5.6696 20.616C5.6888 20.076 5.7128 19.5456 5.7416 18.9072C5.8616 16.3512 6.2648 14.6112 6.8576 13.08C7.46166 11.4773 8.40853 10.0259 9.632 8.82725C10.83 7.60697 12.2796 6.66263 13.88 6.06005C15.4112 5.46725 17.1512 5.06405 19.7072 4.94405C20.3456 4.91525 20.8784 4.89125 21.416 4.87205L21.8816 4.85765C23.6317 4.81501 25.3822 4.79661 27.1328 4.80245L32.0672 4.80005ZM29.6 16.8C26.4174 16.8 23.3652 18.0643 21.1147 20.3148C18.8643 22.5652 17.6 25.6175 17.6 28.8C17.6 31.9826 18.8643 35.0349 21.1147 37.2853C23.3652 39.5358 26.4174 40.8 29.6 40.8C32.7826 40.8 35.8348 39.5358 38.0853 37.2853C40.3357 35.0349 41.6 31.9826 41.6 28.8C41.6 25.6175 40.3357 22.5652 38.0853 20.3148C35.8348 18.0643 32.7826 16.8 29.6 16.8ZM29.6 21.6C30.5455 21.5999 31.4818 21.786 32.3554 22.1477C33.229 22.5093 34.0228 23.0396 34.6915 23.708C35.3602 24.3765 35.8907 25.1701 36.2527 26.0436C36.6147 26.9171 36.801 27.8533 36.8012 28.7989C36.8014 29.7444 36.6153 30.6807 36.2536 31.5543C35.8919 32.4279 35.3617 33.2217 34.6932 33.8904C34.0247 34.5591 33.2311 35.0895 32.3576 35.4515C31.4841 35.8135 30.5479 35.9999 29.6024 36C27.6928 36 25.8615 35.2415 24.5112 33.8912C23.161 32.541 22.4024 30.7096 22.4024 28.8C22.4024 26.8905 23.161 25.0591 24.5112 23.7089C25.8615 22.3586 27.6928 21.6 29.6024 21.6M42.2024 13.2C41.4067 13.2 40.6437 13.5161 40.0811 14.0787C39.5185 14.6413 39.2024 15.4044 39.2024 16.2C39.2024 16.9957 39.5185 17.7588 40.0811 18.3214C40.6437 18.884 41.4067 19.2 42.2024 19.2C42.998 19.2 43.7611 18.884 44.3237 18.3214C44.8863 17.7588 45.2024 16.9957 45.2024 16.2C45.2024 15.4044 44.8863 14.6413 44.3237 14.0787C43.7611 13.5161 42.998 13.2 42.2024 13.2Z" fill="white"/>
</svg>
