<svg width="58" height="58" viewBox="0 0 58 58" fill="none" xmlns="http://www.w3.org/2000/svg">
<mask id="mask0_20_168" style="mask-type:luminance" maskUnits="userSpaceOnUse" x="6" y="6" width="46" height="46">
<path d="M6 6H51.6V51.6H6V6Z" fill="white"/>
</mask>
<g mask="url(#mask0_20_168)">
<path d="M33.096 6.33609L31.728 6.14409C27.6166 5.55047 23.4212 6.13775 19.6309 7.83745C15.8405 9.53716 12.6114 12.2793 10.32 15.7441C7.88197 19.056 6.4286 22.9891 6.12715 27.0905C5.8257 31.192 6.68841 35.2953 8.616 38.9281C8.81327 39.2922 8.93609 39.6919 8.9773 40.104C9.0185 40.516 8.97727 40.9321 8.856 41.3281C7.872 44.7121 6.96 48.1201 6 51.6961L7.2 51.3361C10.44 50.4721 13.68 49.6081 16.92 48.8161C17.6039 48.6739 18.3147 48.7408 18.96 49.0081C21.8669 50.4268 25.0436 51.2073 28.2769 51.2972C31.5103 51.3871 34.7254 50.7844 37.7067 49.5294C40.6879 48.2745 43.3662 46.3964 45.5618 44.0212C47.7575 41.6459 49.4197 38.8285 50.4368 35.758C51.454 32.6875 51.8026 29.435 51.4593 26.2187C51.116 23.0023 50.0886 19.8967 48.4463 17.1101C46.8039 14.3235 44.5844 11.9204 41.9369 10.0622C39.2893 8.2039 36.275 6.93346 33.096 6.33609ZM39.144 37.8241C38.2717 38.605 37.2081 39.1408 36.0613 39.3769C34.9146 39.613 33.7258 39.541 32.616 39.1681C27.5869 37.752 23.2239 34.5966 20.304 30.2641C19.1887 28.7318 18.2921 27.0516 17.64 25.2721C17.2868 24.2396 17.2232 23.13 17.4559 22.0639C17.6886 20.9977 18.2087 20.0156 18.96 19.2241C19.3257 18.7573 19.8235 18.4115 20.3886 18.2317C20.9537 18.0519 21.5598 18.0465 22.128 18.2161C22.608 18.3361 22.944 19.0321 23.376 19.5601C23.7264 20.5513 24.1368 21.5209 24.6 22.4641C24.9514 22.9453 25.0982 23.546 25.0083 24.1351C24.9183 24.7241 24.599 25.2537 24.12 25.6081C23.04 26.5681 23.208 27.3601 23.976 28.4401C25.6739 30.8861 28.0166 32.8135 30.744 34.0081C31.512 34.3441 32.088 34.4161 32.592 33.6241C32.808 33.3121 33.096 33.0481 33.336 32.7601C34.728 31.0081 34.296 31.0321 36.504 31.9921C37.2072 32.2873 37.8888 32.6329 38.544 33.0241C39.192 33.4081 40.176 33.8161 40.32 34.3921C40.4585 35.017 40.4221 35.668 40.2146 36.2735C40.0071 36.879 39.6367 37.4155 39.144 37.8241Z" fill="white"/>
</g>
</svg>
