<svg width="59" height="58" viewBox="0 0 59 58" fill="none" xmlns="http://www.w3.org/2000/svg">
<path d="M55.8 23.304C55.9187 19.8688 55.1674 16.4593 53.616 13.392C52.5634 12.1334 51.1025 11.2841 49.488 10.992C42.8101 10.3861 36.1045 10.1377 29.4 10.248C22.72 10.1327 16.0385 10.3731 9.38401 10.968C8.06838 11.2073 6.85085 11.8244 5.88001 12.744C3.72001 14.736 3.48001 18.144 3.24001 21.024C2.8918 26.2022 2.8918 31.3979 3.24001 36.576C3.30944 38.197 3.55079 39.806 3.96001 41.376C4.24939 42.5882 4.83486 43.7096 5.66401 44.64C6.64145 45.6083 7.88733 46.2605 9.24001 46.512C14.4142 47.1507 19.6277 47.4154 24.84 47.304C33.24 47.424 40.608 47.304 49.32 46.632C50.7059 46.396 51.9869 45.7429 52.992 44.76C53.6639 44.0878 54.1658 43.265 54.456 42.36C55.3143 39.7263 55.7359 36.9699 55.704 34.2C55.8 32.856 55.8 24.744 55.8 23.304ZM23.976 35.64V20.784L38.184 28.248C34.2 30.456 28.944 32.952 23.976 35.64Z" fill="white"/>
</svg>
